<?xml version="1.0" encoding="UTF-8" standalone="no"?><!DOCTYPE svg PUBLIC "-//W3C//DTD SVG 1.1//EN" "http://www.w3.org/Graphics/SVG/1.1/DTD/svg11.dtd"><svg width="100%" height="100%" viewBox="0 0 700 77" version="1.1" xmlns="http://www.w3.org/2000/svg" xmlns:xlink="http://www.w3.org/1999/xlink" xml:space="preserve" xmlns:serif="http://www.serif.com/" style="fill-rule:evenodd;clip-rule:evenodd;stroke-linejoin:round;stroke-miterlimit:2;"><path d="M593.546,2.024c-24.213,-3.03 -81.299,5.763 -105.279,10.121c-20.184,3.674 -42.27,-4.554 -61.752,-8.098c-30.46,-5.534 -60.457,11.897 -91.111,9.112c-20.943,-1.904 -40.348,-13.159 -61.752,-13.159c-20.706,0 -38.681,10.855 -60.74,8.098c-32.904,-4.113 -67.889,-8.769 -101.233,-5.061c-11.596,1.287 -21.789,6.808 -33.404,8.099c-20.893,2.32 -47.855,-7.137 -66.815,7.084c-4.543,3.406 -7.415,8.885 -9.164,15.375c-0.908,3.378 -1.53,7.018 -1.886,10.812c-0.309,3.282 -0.426,6.668 -0.408,10.067c3.464,7.439 5.677,14.873 9.178,21.875c7.549,-6.217 4.441,-31.528 21.759,-24.423c6.661,2.664 9.325,11.989 15.098,15.542c7.549,4.885 14.654,2.221 21.759,-1.332c7.994,-4.44 14.211,-5.773 23.092,-6.217c4.884,-0.444 12.434,-1.776 16.874,-0.444c3.997,1.332 5.329,4.44 8.438,7.549c6.217,4.884 12.877,4.884 20.426,4.884c10.214,0 13.767,-5.329 22.647,-8.436c10.658,-3.997 23.98,-1.333 35.082,-2.665c10.213,-1.776 15.542,-2.664 25.311,0.444c24.868,7.549 53.731,12.434 79.043,2.664c17.318,-6.217 33.305,-15.986 51.511,-17.318c7.55,-0.444 15.098,-3.108 19.983,3.997c1.777,2.664 1.332,5.772 3.997,7.549c3.108,1.332 9.325,-0.445 12.433,-1.332c5.773,-1.333 11.102,-4.885 16.431,-7.106c7.993,-3.996 14.21,-3.996 23.091,-4.44c8.437,-0.444 16.43,-2.221 25.312,-1.776c8.881,0.444 16.874,3.108 25.755,4.44c19.094,3.108 37.3,-1.776 56.841,-2.22c7.105,0 16.874,-2.665 23.979,-0.888c7.549,1.776 12.878,7.993 19.539,11.101c9.769,4.885 28.42,3.553 39.077,0.889c-0.444,5.328 -4.44,10.657 -4.885,15.542c3.998,-2.221 3.998,-7.549 7.106,-10.657c3.552,-4.442 9.768,-6.662 15.542,-9.326c8.436,-3.997 18.206,-2.22 27.531,-3.109c18.652,-2.22 30.641,-4.885 36.858,-24.423c0.94,-3.012 1.079,-5.863 0.763,-8.657c-22.283,-24.754 -56.875,-8.016 -106.027,-14.157Z" style="fill:#d7effa;fill-rule:nonzero;"/><path d="M669.113,2.436c-19.881,-1.659 -44.888,3.421 -75.567,-0.412c-24.213,-3.03 -81.299,5.763 -105.279,10.121c-20.184,3.674 -42.27,-4.554 -61.752,-8.098c-30.46,-5.534 -60.457,11.897 -91.111,9.112c-20.943,-1.904 -40.348,-13.159 -61.752,-13.159c-20.706,0 -38.681,10.855 -60.74,8.098c-32.904,-4.113 -67.889,-8.769 -101.233,-5.061c-11.596,1.287 -21.789,6.808 -33.404,8.099c-19.301,2.144 -43.779,-5.75 -62.346,4.246c9.44,8.459 19.79,13.094 35.881,13.899c18.946,1.183 29.605,14.209 49.143,7.697c18.355,-5.921 33.749,-12.434 53.88,-10.657c20.131,1.776 40.261,1.776 60.393,1.776c23.683,0 46.775,-2.961 70.457,-2.961c18.947,0 33.749,10.065 53.88,4.145c42.038,-12.434 84.076,0.591 127.297,-3.553c21.907,-2.368 42.631,-7.697 64.538,-4.737c20.13,2.96 40.261,1.184 60.393,2.369c26.05,1.776 47.365,-10.066 71.05,-18.947c1.795,-0.598 3.969,-1.235 6.272,-1.977Z" style="fill:#fff;fill-rule:nonzero;"/></svg>